<svg id="mermaid-1561559333956" width="100%" xmlns="http://www.w3.org/2000/svg" height="100%" style="max-width:2050px;" viewBox="-50 -10 2050 1466"><style>#mermaid-1561559333956 .label{font-family:trebuchet ms,verdana,arial;color:#333}#mermaid-1561559333956 .node circle,#mermaid-1561559333956 .node ellipse,#mermaid-1561559333956 .node polygon,#mermaid-1561559333956 .node rect{fill:#ececff;stroke:#9370db;stroke-width:1px}#mermaid-1561559333956 .node.clickable{cursor:pointer}#mermaid-1561559333956 .arrowheadPath{fill:#333}#mermaid-1561559333956 .edgePath .path{stroke:#333;stroke-width:1.5px}#mermaid-1561559333956 .edgeLabel{background-color:#e8e8e8}#mermaid-1561559333956 .cluster rect{fill:#ffffde!important;stroke:#aa3!important;stroke-width:1px!important}#mermaid-1561559333956 .cluster text{fill:#333}#mermaid-1561559333956 div.mermaidTooltip{position:absolute;text-align:center;max-width:200px;padding:2px;font-family:trebuchet ms,verdana,arial;font-size:12px;background:#ffffde;border:1px solid #aa3;border-radius:2px;pointer-events:none;z-index:100}#mermaid-1561559333956 .actor{stroke:#ccf;fill:#ececff}#mermaid-1561559333956 text.actor{fill:#000;stroke:none}#mermaid-1561559333956 .actor-line{stroke:grey}#mermaid-1561559333956 .messageLine0{marker-end:"url(#arrowhead)"}#mermaid-1561559333956 .messageLine0,#mermaid-1561559333956 .messageLine1{stroke-width:1.5;stroke-dasharray:"2 2";stroke:#333}#mermaid-1561559333956 #arrowhead{fill:#333}#mermaid-1561559333956 #crosshead path{fill:#333!important;stroke:#333!important}#mermaid-1561559333956 .messageText{fill:#333;stroke:none}#mermaid-1561559333956 .labelBox{stroke:#ccf;fill:#ececff}#mermaid-1561559333956 .labelText,#mermaid-1561559333956 .loopText{fill:#000;stroke:none}#mermaid-1561559333956 .loopLine{stroke-width:2;stroke-dasharray:"2 2";marker-end:"url(#arrowhead)";stroke:#ccf}#mermaid-1561559333956 .note{stroke:#aa3;fill:#fff5ad}#mermaid-1561559333956 .noteText{fill:#000;stroke:none;font-family:trebuchet ms,verdana,arial;font-size:14px}#mermaid-1561559333956 .section{stroke:none;opacity:.2}#mermaid-1561559333956 .section0{fill:rgba(102,102,255,.49)}#mermaid-1561559333956 .section2{fill:#fff400}#mermaid-1561559333956 .section1,#mermaid-1561559333956 .section3{fill:#fff;opacity:.2}#mermaid-1561559333956 .sectionTitle0,#mermaid-1561559333956 .sectionTitle1,#mermaid-1561559333956 .sectionTitle2,#mermaid-1561559333956 .sectionTitle3{fill:#333}#mermaid-1561559333956 .sectionTitle{text-anchor:start;font-size:11px;text-height:14px}#mermaid-1561559333956 .grid .tick{stroke:#d3d3d3;opacity:.3;shape-rendering:crispEdges}#mermaid-1561559333956 .grid path{stroke-width:0}#mermaid-1561559333956 .today{fill:none;stroke:red;stroke-width:2px}#mermaid-1561559333956 .task{stroke-width:2}#mermaid-1561559333956 .taskText{text-anchor:middle;font-size:11px}#mermaid-1561559333956 .taskTextOutsideRight{fill:#000;text-anchor:start;font-size:11px}#mermaid-1561559333956 .taskTextOutsideLeft{fill:#000;text-anchor:end;font-size:11px}#mermaid-1561559333956 .taskText0,#mermaid-1561559333956 .taskText1,#mermaid-1561559333956 .taskText2,#mermaid-1561559333956 .taskText3{fill:#fff}#mermaid-1561559333956 .task0,#mermaid-1561559333956 .task1,#mermaid-1561559333956 .task2,#mermaid-1561559333956 .task3{fill:#8a90dd;stroke:#534fbc}#mermaid-1561559333956 .taskTextOutside0,#mermaid-1561559333956 .taskTextOutside1,#mermaid-1561559333956 .taskTextOutside2,#mermaid-1561559333956 .taskTextOutside3{fill:#000}#mermaid-1561559333956 .active0,#mermaid-1561559333956 .active1,#mermaid-1561559333956 .active2,#mermaid-1561559333956 .active3{fill:#bfc7ff;stroke:#534fbc}#mermaid-1561559333956 .activeText0,#mermaid-1561559333956 .activeText1,#mermaid-1561559333956 .activeText2,#mermaid-1561559333956 .activeText3{fill:#000!important}#mermaid-1561559333956 .done0,#mermaid-1561559333956 .done1,#mermaid-1561559333956 .done2,#mermaid-1561559333956 .done3{stroke:grey;fill:#d3d3d3;stroke-width:2}#mermaid-1561559333956 .doneText0,#mermaid-1561559333956 .doneText1,#mermaid-1561559333956 .doneText2,#mermaid-1561559333956 .doneText3{fill:#000!important}#mermaid-1561559333956 .crit0,#mermaid-1561559333956 .crit1,#mermaid-1561559333956 .crit2,#mermaid-1561559333956 .crit3{stroke:#f88;fill:red;stroke-width:2}#mermaid-1561559333956 .activeCrit0,#mermaid-1561559333956 .activeCrit1,#mermaid-1561559333956 .activeCrit2,#mermaid-1561559333956 .activeCrit3{stroke:#f88;fill:#bfc7ff;stroke-width:2}#mermaid-1561559333956 .doneCrit0,#mermaid-1561559333956 .doneCrit1,#mermaid-1561559333956 .doneCrit2,#mermaid-1561559333956 .doneCrit3{stroke:#f88;fill:#d3d3d3;stroke-width:2;cursor:pointer;shape-rendering:crispEdges}#mermaid-1561559333956 .activeCritText0,#mermaid-1561559333956 .activeCritText1,#mermaid-1561559333956 .activeCritText2,#mermaid-1561559333956 .activeCritText3,#mermaid-1561559333956 .doneCritText0,#mermaid-1561559333956 .doneCritText1,#mermaid-1561559333956 .doneCritText2,#mermaid-1561559333956 .doneCritText3{fill:#000!important}#mermaid-1561559333956 .titleText{text-anchor:middle;font-size:18px;fill:#000}#mermaid-1561559333956 g.classGroup text{fill:#9370db;stroke:none;font-family:trebuchet ms,verdana,arial;font-size:10px}#mermaid-1561559333956 g.classGroup rect{fill:#ececff;stroke:#9370db}#mermaid-1561559333956 g.classGroup line{stroke:#9370db;stroke-width:1}#mermaid-1561559333956 .classLabel .box{stroke:none;stroke-width:0;fill:#ececff;opacity:.5}#mermaid-1561559333956 .classLabel .label{fill:#9370db;font-size:10px}#mermaid-1561559333956 .relation{stroke:#9370db;stroke-width:1;fill:none}#mermaid-1561559333956 #compositionEnd,#mermaid-1561559333956 #compositionStart{fill:#9370db;stroke:#9370db;stroke-width:1}#mermaid-1561559333956 #aggregationEnd,#mermaid-1561559333956 #aggregationStart{fill:#ececff;stroke:#9370db;stroke-width:1}#mermaid-1561559333956 #dependencyEnd,#mermaid-1561559333956 #dependencyStart,#mermaid-1561559333956 #extensionEnd,#mermaid-1561559333956 #extensionStart{fill:#9370db;stroke:#9370db;stroke-width:1}#mermaid-1561559333956 .branch-label,#mermaid-1561559333956 .commit-id,#mermaid-1561559333956 .commit-msg{fill:#d3d3d3;color:#d3d3d3}</style><style>#mermaid-1561559333956 {
    color: rgb(0, 0, 0);
    font: normal normal 400 normal 16px / normal "Times New Roman";
  }</style><g></g><g><line id="actor0" x1="75" y1="5" x2="75" y2="1455" class="actor-line" stroke-width="0.5px" stroke="#999"></line><rect x="0" y="0" fill="#eaeaea" stroke="#666" width="150" height="65" rx="3" ry="3" class="actor"></rect><text x="75" y="32.5" dominant-baseline="central" alignment-baseline="central" class="actor" style="text-anchor: middle;"><tspan x="75" dy="0">Some module</tspan></text></g><g><line id="actor1" x1="275" y1="5" x2="275" y2="1455" class="actor-line" stroke-width="0.5px" stroke="#999"></line><rect x="200" y="0" fill="#eaeaea" stroke="#666" width="150" height="65" rx="3" ry="3" class="actor"></rect><text x="275" y="32.5" dominant-baseline="central" alignment-baseline="central" class="actor" style="text-anchor: middle;"><tspan x="275" dy="0">MyEvent(record)</tspan></text></g><g><line id="actor2" x1="475" y1="5" x2="475" y2="1455" class="actor-line" stroke-width="0.5px" stroke="#999"></line><rect x="400" y="0" fill="#eaeaea" stroke="#666" width="150" height="65" rx="3" ry="3" class="actor"></rect><text x="475" y="32.5" dominant-baseline="central" alignment-baseline="central" class="actor" style="text-anchor: middle;"><tspan x="475" dy="0">RecordsSupervisor</tspan></text></g><g><line id="actor3" x1="675" y1="5" x2="675" y2="1455" class="actor-line" stroke-width="0.5px" stroke="#999"></line><rect x="600" y="0" fill="#eaeaea" stroke="#666" width="150" height="65" rx="3" ry="3" class="actor"></rect><text x="675" y="32.5" dominant-baseline="central" alignment-baseline="central" class="actor" style="text-anchor: middle;"><tspan x="675" dy="0">ProducerSupervisor</tspan></text></g><g><line id="actor4" x1="875" y1="5" x2="875" y2="1455" class="actor-line" stroke-width="0.5px" stroke="#999"></line><rect x="800" y="0" fill="#eaeaea" stroke="#666" width="150" height="65" rx="3" ry="3" class="actor"></rect><text x="875" y="32.5" dominant-baseline="central" alignment-baseline="central" class="actor" style="text-anchor: middle;"><tspan x="875" dy="0">Producer</tspan></text></g><g><line id="actor5" x1="1075" y1="5" x2="1075" y2="1455" class="actor-line" stroke-width="0.5px" stroke="#999"></line><rect x="1000" y="0" fill="#eaeaea" stroke="#666" width="150" height="65" rx="3" ry="3" class="actor"></rect><text x="1075" y="32.5" dominant-baseline="central" alignment-baseline="central" class="actor" style="text-anchor: middle;"><tspan x="1075" dy="0">ConsumerDynamicSupervisor</tspan></text></g><g><line id="actor6" x1="1275" y1="5" x2="1275" y2="1455" class="actor-line" stroke-width="0.5px" stroke="#999"></line><rect x="1200" y="0" fill="#eaeaea" stroke="#666" width="150" height="65" rx="3" ry="3" class="actor"></rect><text x="1275" y="32.5" dominant-baseline="central" alignment-baseline="central" class="actor" style="text-anchor: middle;"><tspan x="1275" dy="0">ConsumerSupervisor</tspan></text></g><g><line id="actor7" x1="1475" y1="5" x2="1475" y2="1455" class="actor-line" stroke-width="0.5px" stroke="#999"></line><rect x="1400" y="0" fill="#eaeaea" stroke="#666" width="150" height="65" rx="3" ry="3" class="actor"></rect><text x="1475" y="32.5" dominant-baseline="central" alignment-baseline="central" class="actor" style="text-anchor: middle;"><tspan x="1475" dy="0">Consumer</tspan></text></g><g><line id="actor8" x1="1675" y1="5" x2="1675" y2="1455" class="actor-line" stroke-width="0.5px" stroke="#999"></line><rect x="1600" y="0" fill="#eaeaea" stroke="#666" width="150" height="65" rx="3" ry="3" class="actor"></rect><text x="1675" y="32.5" dominant-baseline="central" alignment-baseline="central" class="actor" style="text-anchor: middle;"><tspan x="1675" dy="0">Task</tspan></text></g><g><line id="actor9" x1="1875" y1="5" x2="1875" y2="1455" class="actor-line" stroke-width="0.5px" stroke="#999"></line><rect x="1800" y="0" fill="#eaeaea" stroke="#666" width="150" height="65" rx="3" ry="3" class="actor"></rect><text x="1875" y="32.5" dominant-baseline="central" alignment-baseline="central" class="actor" style="text-anchor: middle;"><tspan x="1875" dy="0">Kinesis</tspan></text></g><defs><marker id="arrowhead" refX="5" refY="2" markerWidth="6" markerHeight="4" orient="auto"><path d="M 0,0 V 4 L6,2 Z"></path></marker></defs><defs><marker id="crosshead" markerWidth="15" markerHeight="8" orient="auto" refX="16" refY="4"><path fill="black" stroke="#000000" stroke-width="1px" d="M 9,2 V 6 L16,4 Z" style="stroke-dasharray: 0, 0;"></path><path fill="none" stroke="#000000" stroke-width="1px" d="M 0,1 L 6,7 M 6,1 L 0,7" style="stroke-dasharray: 0, 0;"></path></marker></defs><g><text x="175" y="93" class="messageText" style="text-anchor: middle;">record(event)</text><line x1="75" y1="100" x2="275" y2="100" class="messageLine0" stroke-width="2" stroke="black" marker-end="url(#arrowhead)" style="fill: none;"></line></g><g><rect x="270" y="102" fill="#f4f4f4" stroke="#666" width="10" height="753" rx="0" ry="0"></rect></g><g><text x="377.5" y="153" class="messageText" style="text-anchor: middle;">start_child</text><line x1="280" y1="160" x2="475" y2="160" class="messageLine0" stroke-width="2" stroke="black" marker-end="url(#arrowhead)" style="fill: none;"></line></g><g><rect x="470" y="162" fill="#f4f4f4" stroke="#666" width="10" height="583" rx="0" ry="0"></rect></g><g><text x="375" y="188" class="messageText" style="text-anchor: middle;">init</text><line x1="470" y1="195" x2="280" y2="195" class="messageLine0" stroke-width="2" stroke="black" marker-end="url(#arrowhead)" style="fill: none;"></line></g><g><rect x="275" y="197" fill="#f4f4f4" stroke="#666" width="10" height="513" rx="0" ry="0"></rect></g><g><text x="285" y="223" class="messageText" style="text-anchor: middle;">New ets table</text><path d="M 285,230 C 345,220 345,260 285,250" class="messageLine0" stroke-width="2" stroke="black" marker-end="url(#arrowhead)" style="fill: none;"></path></g><g><text x="285" y="288" class="messageText" style="text-anchor: middle;">create_or_get_queue</text><path d="M 285,295 C 345,285 345,325 285,315" class="messageLine0" stroke-width="2" stroke="black" marker-end="url(#arrowhead)" style="fill: none;"></path></g><g><text x="480" y="353" class="messageText" style="text-anchor: middle;">start_child(MyEvent)</text><line x1="285" y1="360" x2="675" y2="360" class="messageLine0" stroke-width="2" stroke="black" marker-end="url(#arrowhead)" style="fill: none;"></line></g><g><rect x="670" y="362" fill="#f4f4f4" stroke="#666" width="10" height="313" rx="0" ry="0"></rect></g><g><text x="777.5" y="388" class="messageText" style="text-anchor: middle;">init(MyEvent)</text><line x1="680" y1="395" x2="875" y2="395" class="messageLine0" stroke-width="2" stroke="black" marker-end="url(#arrowhead)" style="fill: none;"></line></g><g><rect x="870" y="397" fill="#f4f4f4" stroke="#666" width="10" height="243" rx="0" ry="0"></rect></g><g><text x="977.5" y="423" class="messageText" style="text-anchor: middle;">start_child(MyEvent, pid)</text><line x1="880" y1="430" x2="1075" y2="430" class="messageLine0" stroke-width="2" stroke="black" marker-end="url(#arrowhead)" style="fill: none;"></line></g><g><rect x="1070" y="432" fill="#f4f4f4" stroke="#666" width="10" height="103" rx="0" ry="0"></rect></g><g><text x="1177.5" y="458" class="messageText" style="text-anchor: middle;">init({MyEvent, pid})</text><line x1="1080" y1="465" x2="1275" y2="465" class="messageLine0" stroke-width="2" stroke="black" marker-end="url(#arrowhead)" style="fill: none;"></line></g><g><rect x="1270" y="467" fill="#f4f4f4" stroke="#666" width="10" height="33" rx="0" ry="0"></rect></g><g><text x="1175" y="493" class="messageText" style="text-anchor: middle;">{:ok, pid}</text><line x1="1270" y1="500" x2="1080" y2="500" class="messageLine1" stroke-width="2" stroke="black" marker-end="url(#arrowhead)" style="stroke-dasharray: 3, 3; fill: none;"></line></g><g><text x="975" y="528" class="messageText" style="text-anchor: middle;">{:ok, pid}</text><line x1="1070" y1="535" x2="880" y2="535" class="messageLine1" stroke-width="2" stroke="black" marker-end="url(#arrowhead)" style="stroke-dasharray: 3, 3; fill: none;"></line></g><g><text x="577.5" y="563" class="messageText" style="text-anchor: middle;">create_or_get_queue</text><line x1="870" y1="570" x2="285" y2="570" class="messageLine0" stroke-width="2" stroke="black" marker-end="url(#arrowhead)" style="fill: none;"></line></g><g><rect x="280" y="572" fill="#f4f4f4" stroke="#666" width="10" height="33" rx="0" ry="0"></rect></g><g><text x="580" y="598" class="messageText" style="text-anchor: middle;">queue</text><line x1="290" y1="605" x2="870" y2="605" class="messageLine1" stroke-width="2" stroke="black" marker-end="url(#arrowhead)" style="stroke-dasharray: 3, 3; fill: none;"></line></g><g><text x="775" y="633" class="messageText" style="text-anchor: middle;">{:producer, {{queue, 0}, MyEvent}}</text><line x1="870" y1="640" x2="680" y2="640" class="messageLine1" stroke-width="2" stroke="black" marker-end="url(#arrowhead)" style="stroke-dasharray: 3, 3; fill: none;"></line></g><g><text x="477.5" y="668" class="messageText" style="text-anchor: middle;">{:ok, pid}</text><line x1="670" y1="675" x2="285" y2="675" class="messageLine1" stroke-width="2" stroke="black" marker-end="url(#arrowhead)" style="stroke-dasharray: 3, 3; fill: none;"></line></g><g><text x="377.5" y="703" class="messageText" style="text-anchor: middle;">{:ok, nil}</text><line x1="285" y1="710" x2="470" y2="710" class="messageLine1" stroke-width="2" stroke="black" marker-end="url(#arrowhead)" style="stroke-dasharray: 3, 3; fill: none;"></line></g><g><text x="375" y="738" class="messageText" style="text-anchor: middle;">{:ok pid}</text><line x1="470" y1="745" x2="280" y2="745" class="messageLine1" stroke-width="2" stroke="black" marker-end="url(#arrowhead)" style="stroke-dasharray: 3, 3; fill: none;"></line></g><g><line x1="175" y1="110" x2="1290" y2="110" class="loopLine"></line><line x1="1290" y1="110" x2="1290" y2="755" class="loopLine"></line><line x1="175" y1="755" x2="1290" y2="755" class="loopLine"></line><line x1="175" y1="110" x2="175" y2="755" class="loopLine"></line><polygon points="175,110 225,110 225,123 216.6,130 175,130" class="labelBox"></polygon><text x="182.5" y="125" fill="black" class="labelText"><tspan x="182.5" fill="black">opt</tspan></text><text x="732.5" y="125" fill="black" class="loopText" style="text-anchor: middle;"><tspan x="732.5" fill="black">[ MyEvent server not running ]</tspan></text></g><g><text x="280" y="783" class="messageText" style="text-anchor: middle;">add(event)</text><path d="M 280,790 C 340,780 340,820 280,810" class="messageLine0" stroke-width="2" stroke="black" marker-end="url(#arrowhead)" style="fill: none;"></path></g><g><text x="172.5" y="848" class="messageText" style="text-anchor: middle;">:ok</text><line x1="270" y1="855" x2="75" y2="855" class="messageLine1" stroke-width="2" stroke="black" marker-end="url(#arrowhead)" style="stroke-dasharray: 3, 3; fill: none;"></line></g><g><text x="875" y="908" class="messageText" style="text-anchor: middle;">create_batches_and_flush</text><line x1="1475" y1="915" x2="275" y2="915" class="messageLine0" stroke-width="2" stroke="black" marker-end="url(#arrowhead)" style="fill: none;"></line></g><g><rect x="270" y="917" fill="#f4f4f4" stroke="#666" width="10" height="33" rx="0" ry="0"></rect></g><g><text x="877.5" y="943" class="messageText" style="text-anchor: middle;">batch of events</text><line x1="280" y1="950" x2="1475" y2="950" class="messageLine1" stroke-width="2" stroke="black" marker-end="url(#arrowhead)" style="stroke-dasharray: 3, 3; fill: none;"></line></g><g><text x="1475" y="978" class="messageText" style="text-anchor: middle;">Append batches to the current batches queue</text><path d="M 1475,985 C 1535,975 1535,1015 1475,1005" class="messageLine0" stroke-width="2" stroke="black" marker-end="url(#arrowhead)" style="fill: none;"></path></g><g><text x="1475" y="1068" class="messageText" style="text-anchor: middle;">dispatch batches</text><path d="M 1475,1075 C 1535,1065 1535,1105 1475,1095" class="messageLine0" stroke-width="2" stroke="black" marker-end="url(#arrowhead)" style="fill: none;"></path></g><g><line x1="1365" y1="1025" x2="1585" y2="1025" class="loopLine"></line><line x1="1585" y1="1025" x2="1585" y2="1115" class="loopLine"></line><line x1="1365" y1="1115" x2="1585" y2="1115" class="loopLine"></line><line x1="1365" y1="1025" x2="1365" y2="1115" class="loopLine"></line><polygon points="1365,1025 1415,1025 1415,1038 1406.6,1045 1365,1045" class="labelBox"></polygon><text x="1372.5" y="1040" fill="black" class="labelText"><tspan x="1372.5" fill="black">opt</tspan></text><text x="1475" y="1040" fill="black" class="loopText" style="text-anchor: middle;"><tspan x="1475" fill="black">[ When there is enough batches to dispatch ]</tspan></text></g><g><line x1="260" y1="865" x2="1628.0625" y2="865" class="loopLine"></line><line x1="1628.0625" y1="865" x2="1628.0625" y2="1125" class="loopLine"></line><line x1="260" y1="1125" x2="1628.0625" y2="1125" class="loopLine"></line><line x1="260" y1="865" x2="260" y2="1125" class="loopLine"></line><polygon points="260,865 310,865 310,878 301.6,885 260,885" class="labelBox"></polygon><text x="267.5" y="880" fill="black" class="labelText"><tspan x="267.5" fill="black">loop</tspan></text><text x="944.03125" y="880" fill="black" class="loopText" style="text-anchor: middle;"><tspan x="944.03125" fill="black">[ Every tick ]</tspan></text></g><g><text x="1375" y="1178" class="messageText" style="text-anchor: middle;">start_link(MyEvent, events)</text><line x1="1275" y1="1185" x2="1475" y2="1185" class="messageLine0" stroke-width="2" stroke="black" marker-end="url(#arrowhead)" style="fill: none;"></line></g><g><rect x="1470" y="1187" fill="#f4f4f4" stroke="#666" width="10" height="173" rx="0" ry="0"></rect></g><g><text x="1577.5" y="1213" class="messageText" style="text-anchor: middle;">start_link</text><line x1="1480" y1="1220" x2="1675" y2="1220" class="messageLine0" stroke-width="2" stroke="black" marker-end="url(#arrowhead)" style="fill: none;"></line></g><g><rect x="1670" y="1222" fill="#f4f4f4" stroke="#666" width="10" height="103" rx="0" ry="0"></rect></g><g><text x="972.5" y="1248" class="messageText" style="text-anchor: middle;">handle_event(events)</text><line x1="1670" y1="1255" x2="275" y2="1255" class="messageLine0" stroke-width="2" stroke="black" marker-end="url(#arrowhead)" style="fill: none;"></line></g><g><text x="1075" y="1283" class="messageText" style="text-anchor: middle;">send_data(events)</text><line x1="275" y1="1290" x2="1875" y2="1290" class="messageLine0" stroke-width="2" stroke="black" marker-end="url(#arrowhead)" style="fill: none;"></line></g><g><text x="1575" y="1318" class="messageText" style="text-anchor: middle;">:ok</text><line x1="1670" y1="1325" x2="1480" y2="1325" class="messageLine0" stroke-width="2" stroke="black" marker-end="url(#arrowhead)" style="fill: none;"></line></g><g><text x="1372.5" y="1353" class="messageText" style="text-anchor: middle;">{:ok, pid}</text><line x1="1470" y1="1360" x2="1275" y2="1360" class="messageLine1" stroke-width="2" stroke="black" marker-end="url(#arrowhead)" style="stroke-dasharray: 3, 3; fill: none;"></line></g><g><line x1="265" y1="1135" x2="1885" y2="1135" class="loopLine"></line><line x1="1885" y1="1135" x2="1885" y2="1370" class="loopLine"></line><line x1="265" y1="1370" x2="1885" y2="1370" class="loopLine"></line><line x1="265" y1="1135" x2="265" y2="1370" class="loopLine"></line><polygon points="265,1135 315,1135 315,1148 306.6,1155 265,1155" class="labelBox"></polygon><text x="272.5" y="1150" fill="black" class="labelText"><tspan x="272.5" fill="black">opt</tspan></text><text x="1075" y="1150" fill="black" class="loopText" style="text-anchor: middle;"><tspan x="1075" fill="black">[ When a new batch is dispatched ]</tspan></text></g><g><rect x="0" y="1390" fill="#eaeaea" stroke="#666" width="150" height="65" rx="3" ry="3" class="actor"></rect><text x="75" y="1422.5" dominant-baseline="central" alignment-baseline="central" class="actor" style="text-anchor: middle;"><tspan x="75" dy="0">Some module</tspan></text></g><g><rect x="200" y="1390" fill="#eaeaea" stroke="#666" width="150" height="65" rx="3" ry="3" class="actor"></rect><text x="275" y="1422.5" dominant-baseline="central" alignment-baseline="central" class="actor" style="text-anchor: middle;"><tspan x="275" dy="0">MyEvent(record)</tspan></text></g><g><rect x="400" y="1390" fill="#eaeaea" stroke="#666" width="150" height="65" rx="3" ry="3" class="actor"></rect><text x="475" y="1422.5" dominant-baseline="central" alignment-baseline="central" class="actor" style="text-anchor: middle;"><tspan x="475" dy="0">RecordsSupervisor</tspan></text></g><g><rect x="600" y="1390" fill="#eaeaea" stroke="#666" width="150" height="65" rx="3" ry="3" class="actor"></rect><text x="675" y="1422.5" dominant-baseline="central" alignment-baseline="central" class="actor" style="text-anchor: middle;"><tspan x="675" dy="0">ProducerSupervisor</tspan></text></g><g><rect x="800" y="1390" fill="#eaeaea" stroke="#666" width="150" height="65" rx="3" ry="3" class="actor"></rect><text x="875" y="1422.5" dominant-baseline="central" alignment-baseline="central" class="actor" style="text-anchor: middle;"><tspan x="875" dy="0">Producer</tspan></text></g><g><rect x="1000" y="1390" fill="#eaeaea" stroke="#666" width="150" height="65" rx="3" ry="3" class="actor"></rect><text x="1075" y="1422.5" dominant-baseline="central" alignment-baseline="central" class="actor" style="text-anchor: middle;"><tspan x="1075" dy="0">ConsumerDynamicSupervisor</tspan></text></g><g><rect x="1200" y="1390" fill="#eaeaea" stroke="#666" width="150" height="65" rx="3" ry="3" class="actor"></rect><text x="1275" y="1422.5" dominant-baseline="central" alignment-baseline="central" class="actor" style="text-anchor: middle;"><tspan x="1275" dy="0">ConsumerSupervisor</tspan></text></g><g><rect x="1400" y="1390" fill="#eaeaea" stroke="#666" width="150" height="65" rx="3" ry="3" class="actor"></rect><text x="1475" y="1422.5" dominant-baseline="central" alignment-baseline="central" class="actor" style="text-anchor: middle;"><tspan x="1475" dy="0">Consumer</tspan></text></g><g><rect x="1600" y="1390" fill="#eaeaea" stroke="#666" width="150" height="65" rx="3" ry="3" class="actor"></rect><text x="1675" y="1422.5" dominant-baseline="central" alignment-baseline="central" class="actor" style="text-anchor: middle;"><tspan x="1675" dy="0">Task</tspan></text></g><g><rect x="1800" y="1390" fill="#eaeaea" stroke="#666" width="150" height="65" rx="3" ry="3" class="actor"></rect><text x="1875" y="1422.5" dominant-baseline="central" alignment-baseline="central" class="actor" style="text-anchor: middle;"><tspan x="1875" dy="0">Kinesis</tspan></text></g></svg>